<svg xmlns="http://www.w3.org/2000/svg" width="21" height="19" viewBox="0 0 21 19" fill="none">
    <path d="M18.5384 1.46155H9.76915C9.38153 1.46155 9.00978 1.61553 8.73569 1.88962C8.4616 2.16371 8.30762 2.53546 8.30762 2.92309V8.76923C8.30762 9.15686 8.4616 9.52861 8.73569 9.8027C9.00978 10.0768 9.38153 10.2308 9.76915 10.2308H18.5384C18.926 10.2308 19.2977 10.0768 19.5718 9.8027C19.8459 9.52861 19.9999 9.15686 19.9999 8.76923V2.92309C19.9999 2.53546 19.8459 2.16371 19.5718 1.88962C19.2977 1.61553 18.926 1.46155 18.5384 1.46155Z" stroke="#5A5A5A" stroke-linecap="round" stroke-linejoin="round"/>
    <path d="M16.3461 13.8846H6.11535C5.72772 13.8846 5.35597 13.7306 5.08188 13.4565C4.80779 13.1824 4.65381 12.8107 4.65381 12.4231V5.11539" stroke="#5A5A5A" stroke-linecap="round" stroke-linejoin="round"/>
    <path d="M13.4231 17.5385H2.46154C2.07391 17.5385 1.70217 17.3845 1.42807 17.1104C1.15398 16.8363 1 16.4645 1 16.0769V8.03847" stroke="#5A5A5A" stroke-linecap="round" stroke-linejoin="round"/>
</svg>
